# xmcd
#
# Track frame offsets:
#	150
#	12464
#	32840
#
# Disc length: 600 seconds
# Revision: 0
# Processed by: cddbd v1.5.2PL0 Copyright (c) Steve Scherf et al.
# Submitted via: dBpowerAMP V12.0
#
DISCID=1d025603
DTITLE=Sybil Gage - The Christmas Beat
DYEAR=1900
DGENRE=Christmas
TTITLE0=The Christmas Beat (alt take 1)
TTITLE1=The Christmas Beat
TTITLE2=The Christmas Beat (alt take 2)
EXTD=
EXTT0=
EXTT1=
EXTT2=
PLAYORDER=
